<svg height="20" viewBox="0 0 20 20" width="20" xmlns="http://www.w3.org/2000/svg"><path d="m19.87 6.453c.119.257.127 1.29-4.884 3.642l-4.913 2.306c-1.71.803-4.191 1.859-5.285 2.151-.766.204-1.497-.316-1.497-.316s-2.206-1.975-2.792-2.419c-.585-.444-.535-.67.215-.91.467-.149 3.13.493 4.265.78 1.339-.8 2.562-1.486 3.141-1.798-1.396-1.033-4.008-2.962-4.841-3.55-.799-.565.01-.768.01-.768.368-.099 1.162-.228 1.562-.144 2.721.569 7.263 2.071 7.611 2.186.832-.436 2.128-1.092 2.922-1.465 2.075-.974 4.327-.037 4.486.305z"/></svg>